<svg width="360" height="127" viewBox="0 0 360 127" fill="none" xmlns="http://www.w3.org/2000/svg">
<path d="M23.04 102.72C19.056 102.72 15.36 102.216 11.952 101.208C8.544 100.152 5.664 98.736 3.312 96.96L6.12 89.688C8.472 91.368 11.04 92.664 13.824 93.576C16.656 94.488 19.728 94.944 23.04 94.944C26.832 94.944 29.592 94.32 31.32 93.072C33.048 91.776 33.912 90.12 33.912 88.104C33.912 86.424 33.288 85.104 32.04 84.144C30.84 83.184 28.752 82.392 25.776 81.768L17.856 80.112C8.832 78.192 4.32 73.56 4.32 66.216C4.32 63.048 5.16 60.288 6.84 57.936C8.52 55.584 10.848 53.76 13.824 52.464C16.8 51.168 20.232 50.52 24.12 50.52C27.576 50.52 30.816 51.048 33.84 52.104C36.864 53.112 39.384 54.552 41.4 56.424L38.592 63.336C34.608 59.976 29.76 58.296 24.048 58.296C20.736 58.296 18.144 58.992 16.272 60.384C14.4 61.776 13.464 63.6 13.464 65.856C13.464 67.584 14.04 68.976 15.192 70.032C16.344 71.04 18.312 71.832 21.096 72.408L28.944 74.064C33.696 75.072 37.224 76.656 39.528 78.816C41.88 80.976 43.056 83.856 43.056 87.456C43.056 90.48 42.24 93.144 40.608 95.448C38.976 97.752 36.648 99.552 33.624 100.848C30.648 102.096 27.12 102.72 23.04 102.72ZM50.9659 102V51.24H60.1819V72.408H86.3179V51.24H95.5339V102H86.3179V80.112H60.1819V102H50.9659ZM129.405 102.72C124.509 102.72 120.213 101.64 116.517 99.48C112.869 97.32 110.037 94.296 108.021 90.408C106.005 86.472 104.997 81.864 104.997 76.584C104.997 71.256 106.005 66.648 108.021 62.76C110.037 58.872 112.869 55.872 116.517 53.76C120.165 51.6 124.461 50.52 129.405 50.52C134.349 50.52 138.645 51.6 142.293 53.76C145.941 55.872 148.773 58.872 150.789 62.76C152.805 66.648 153.813 71.232 153.813 76.512C153.813 81.84 152.805 86.472 150.789 90.408C148.773 94.296 145.941 97.32 142.293 99.48C138.645 101.64 134.349 102.72 129.405 102.72ZM129.405 94.8C134.061 94.8 137.685 93.192 140.277 89.976C142.869 86.76 144.165 82.296 144.165 76.584C144.165 70.824 142.869 66.36 140.277 63.192C137.733 60.024 134.109 58.44 129.405 58.44C124.749 58.44 121.125 60.024 118.533 63.192C115.941 66.36 114.645 70.824 114.645 76.584C114.645 82.296 115.941 86.76 118.533 89.976C121.125 93.192 124.749 94.8 129.405 94.8ZM163.185 102V51.24H185.217C190.785 51.24 195.081 52.632 198.105 55.416C201.129 58.2 202.641 62.088 202.641 67.08C202.641 72.072 201.129 75.984 198.105 78.816C195.081 81.6 190.785 82.992 185.217 82.992H172.401V102H163.185ZM172.401 75.72H183.777C190.401 75.72 193.713 72.84 193.713 67.08C193.713 61.368 190.401 58.512 183.777 58.512H172.401V75.72ZM210.153 102V51.24H232.185C237.753 51.24 242.049 52.632 245.073 55.416C248.097 58.2 249.609 62.088 249.609 67.08C249.609 72.072 248.097 75.984 245.073 78.816C242.049 81.6 237.753 82.992 232.185 82.992H219.369V102H210.153ZM219.369 75.72H230.745C237.369 75.72 240.681 72.84 240.681 67.08C240.681 61.368 237.369 58.512 230.745 58.512H219.369V75.72ZM257.122 102V51.24H266.338V102H257.122ZM277.372 102V51.24H311.14V58.584H286.228V72.552H309.556V79.896H286.228V94.656H311.14V102H277.372ZM337.126 102.72C333.142 102.72 329.446 102.216 326.038 101.208C322.63 100.152 319.75 98.736 317.398 96.96L320.206 89.688C322.558 91.368 325.126 92.664 327.91 93.576C330.742 94.488 333.814 94.944 337.126 94.944C340.918 94.944 343.678 94.32 345.406 93.072C347.134 91.776 347.998 90.12 347.998 88.104C347.998 86.424 347.374 85.104 346.126 84.144C344.926 83.184 342.838 82.392 339.862 81.768L331.942 80.112C322.918 78.192 318.406 73.56 318.406 66.216C318.406 63.048 319.246 60.288 320.926 57.936C322.606 55.584 324.934 53.76 327.91 52.464C330.886 51.168 334.318 50.52 338.206 50.52C341.662 50.52 344.902 51.048 347.926 52.104C350.95 53.112 353.47 54.552 355.486 56.424L352.678 63.336C348.694 59.976 343.846 58.296 338.134 58.296C334.822 58.296 332.23 58.992 330.358 60.384C328.486 61.776 327.55 63.6 327.55 65.856C327.55 67.584 328.126 68.976 329.278 70.032C330.43 71.04 332.398 71.832 335.182 72.408L343.03 74.064C347.782 75.072 351.31 76.656 353.614 78.816C355.966 80.976 357.142 83.856 357.142 87.456C357.142 90.48 356.326 93.144 354.694 95.448C353.062 97.752 350.734 99.552 347.71 100.848C344.734 102.096 341.206 102.72 337.126 102.72Z" fill="#DFC26B"/>
<path d="M169.34 11.36H164.03V29H160.94V11.36H155.66V8.78H169.34V11.36ZM187.46 29H184.37V20.15H175.28V29H172.19V8.78H175.28V17.48H184.37V8.78H187.46V29ZM203.548 29H191.878V8.78H203.398V11.36H194.968V17.6H202.438V20.18H194.968V26.42H203.548V29Z" fill="#DFC26B"/>
<rect x="8" y="18" width="139" height="3" fill="url(#paint0_linear)"/>
<path d="M353 18H214V21H353V18Z" fill="url(#paint1_linear)"/>
<defs>
<linearGradient id="paint0_linear" x1="147" y1="18" x2="8" y2="18" gradientUnits="userSpaceOnUse">
<stop stop-color="#DFC26B"/>
<stop offset="1" stop-opacity="0"/>
</linearGradient>
<linearGradient id="paint1_linear" x1="214" y1="18" x2="353" y2="18" gradientUnits="userSpaceOnUse">
<stop stop-color="#DFC26B"/>
<stop offset="1" stop-opacity="0"/>
</linearGradient>
</defs>
</svg>
