<svg width="203" height="226" viewBox="0 0 203 226" fill="none" xmlns="http://www.w3.org/2000/svg">
<path d="M0 198.026L19.0738 58.1588L143.735 22.6802L130.792 226L0 198.026Z" fill="#96B862"/>
<path d="M160.765 39.055H175.752L203 208.261L130.111 226L143.735 23.3625L160.765 39.055Z" fill="#5F8C3D"/>
<path d="M50.4094 52.7006C79.0201 -33.949 117.168 14.493 109.675 36.3259" stroke="#96B862" stroke-width="5"/>
<path d="M78.3389 42.4666C88.557 0.164873 118.865 -5.9372 128.748 28.1387" stroke="#96B862" stroke-width="5"/>
<g clip-path="url(#clip0)">
<path d="M19.782 118.513C18.4298 118.782 17.2136 118.863 16.1333 118.757C15.0567 118.634 14.1865 118.355 13.5228 117.92L15.027 115.299C15.698 115.702 16.4713 115.961 17.3471 116.078C18.2391 116.192 19.2472 116.136 20.3713 115.912C21.6583 115.656 22.6424 115.261 23.3234 114.727C24.0082 114.176 24.4269 113.564 24.5797 112.89C24.707 112.328 24.5953 111.929 24.2445 111.693C23.9099 111.453 23.2613 111.329 22.2985 111.322L19.736 111.303C16.8187 111.272 15.6384 110.028 16.195 107.572C16.4351 106.513 16.9294 105.533 17.6778 104.633C18.4263 103.733 19.3547 102.966 20.4629 102.331C21.5712 101.696 22.7852 101.248 24.1047 100.985C25.2777 100.751 26.3374 100.709 27.2837 100.857C28.2336 100.99 28.9798 101.301 29.5221 101.791L28.0452 104.292C26.9477 103.437 25.4296 103.204 23.491 103.59C22.3669 103.814 21.4344 104.222 20.6935 104.814C19.9527 105.406 19.4968 106.079 19.3258 106.833C19.1948 107.411 19.2848 107.838 19.5958 108.113C19.9104 108.372 20.5183 108.504 21.4195 108.508L23.9576 108.531C25.4941 108.547 26.5714 108.838 27.1897 109.405C27.8243 109.968 28.0051 110.851 27.7323 112.055C27.5031 113.066 27.0243 114.012 26.2957 114.893C25.5672 115.774 24.6407 116.533 23.5161 117.171C22.4114 117.79 21.1667 118.237 19.782 118.513ZM29.3146 116.384L33.1617 99.4102L36.2896 98.7871L34.6853 105.865L43.5559 104.098L45.1602 97.0198L48.2881 96.3967L44.4411 113.37L41.3131 113.993L42.972 106.674L34.1014 108.441L32.4425 115.76L29.3146 116.384ZM55.8824 111.321C54.2207 111.652 52.8445 111.581 51.7538 111.109C50.6793 110.633 49.9473 109.813 49.5578 108.649C49.1718 107.47 49.179 105.997 49.5791 104.231C49.9829 102.45 50.6743 100.841 51.6532 99.4044C52.6321 97.968 53.8206 96.7734 55.2189 95.8205C56.6207 94.8516 58.1606 94.1999 59.8386 93.8656C61.5166 93.5313 62.8928 93.602 63.9673 94.0776C65.0453 94.5371 65.7791 95.3488 66.1687 96.5126C66.5583 97.6763 66.553 99.141 66.1528 100.907C65.749 102.688 65.0558 104.305 64.0733 105.758C63.0944 107.194 61.904 108.397 60.5022 109.366C59.1003 110.335 57.5604 110.986 55.8824 111.321ZM56.4827 108.672C58.0629 108.357 59.4148 107.575 60.5382 106.324C61.6617 105.073 62.4399 103.493 62.8728 101.583C63.3093 99.6569 63.2078 98.2519 62.5682 97.3678C61.9448 96.4805 60.8349 96.1959 59.2384 96.514C57.6581 96.8288 56.3081 97.6035 55.1882 98.8381C54.0684 100.073 53.2902 101.653 52.8537 103.579C52.4208 105.489 52.5223 106.894 53.1583 107.794C53.7943 108.694 54.9024 108.987 56.4827 108.672ZM67.4019 108.796L71.249 91.8223L78.7267 90.3325C80.6165 89.956 81.9691 90.131 82.7844 90.8575C83.5998 91.5839 83.8183 92.7818 83.4399 94.451C83.0616 96.1202 82.2519 97.5306 81.0109 98.682C79.7736 99.8174 78.21 100.573 76.3202 100.95L71.9705 101.816L70.5299 108.173L67.4019 108.796ZM72.5216 99.3848L76.3826 98.6156C78.6308 98.1677 79.9732 96.9807 80.4098 95.0547C80.8427 93.1447 79.935 92.4136 77.6868 92.8615L73.8258 93.6307L72.5216 99.3848ZM83.3429 105.62L87.19 88.6464L94.6677 87.1567C96.5575 86.7802 97.9101 86.9552 98.7254 87.6816C99.5408 88.4081 99.7593 89.6059 99.3809 91.2751C99.0026 92.9444 98.1929 94.3547 96.952 95.5062C95.7146 96.6416 94.151 97.3975 92.2613 97.774L87.9115 98.6406L86.4709 104.997L83.3429 105.62ZM88.4626 96.209L92.3237 95.4397C94.5718 94.9918 95.9142 93.8049 96.3508 91.8788C96.7837 89.9688 95.876 89.2378 93.6278 89.6857L89.7668 90.4549L88.4626 96.209ZM99.2843 102.444L103.131 85.4705L106.259 84.8473L102.412 101.821L99.2843 102.444ZM106.157 101.075L110.004 84.1012L121.465 81.8179L120.909 84.2736L112.453 85.9581L111.395 90.6288L119.312 89.0514L118.756 91.5071L110.838 93.0845L109.72 98.02L118.175 96.3355L117.618 98.7913L106.157 101.075ZM126.383 97.275C125.031 97.5444 123.815 97.6258 122.734 97.5191C121.658 97.3964 120.788 97.1176 120.124 96.6828L121.628 94.0613C122.299 94.464 123.073 94.7237 123.948 94.8404C124.84 94.9539 125.848 94.8987 126.973 94.6747C128.26 94.4183 129.244 94.023 129.925 93.4889C130.609 92.9387 131.028 92.3265 131.181 91.6524C131.308 91.0906 131.196 90.6914 130.846 90.4548C130.511 90.215 129.862 90.0913 128.9 90.0839L126.337 90.0657C123.42 90.0338 122.24 88.7901 122.796 86.3344C123.036 85.275 123.531 84.2953 124.279 83.3953C125.027 82.4952 125.956 81.7279 127.064 81.0933C128.172 80.4587 129.386 80.0099 130.706 79.747C131.879 79.5134 132.939 79.4708 133.885 79.6195C134.835 79.7521 135.581 80.0632 136.123 80.5528L134.646 83.0539C133.549 82.1998 132.031 81.9658 130.092 82.3521C128.968 82.576 128.036 82.984 127.295 83.5761C126.554 84.1681 126.098 84.8413 125.927 85.5957C125.796 86.1735 125.886 86.6 126.197 86.8752C126.512 87.1344 127.119 87.2661 128.021 87.2705L130.559 87.2936C132.095 87.3093 133.173 87.6004 133.791 88.1669C134.425 88.7301 134.606 89.6136 134.333 90.8174C134.104 91.8286 133.625 92.7746 132.897 93.6553C132.168 94.5361 131.242 95.2954 130.117 95.9333C129.013 96.5519 127.768 96.9991 126.383 97.275Z" fill="white"/>
<path d="M76.4376 78.3471L74.6354 78.7062L73.2985 84.6047L72.2498 84.8136L73.5867 78.9151L71.7946 79.2721L71.9902 78.4094L76.6332 77.4844L76.4376 78.3471ZM81.2507 83.0204L80.2019 83.2294L80.8727 80.2701L77.7875 80.8847L77.1168 83.844L76.068 84.0529L77.6005 77.2917L78.6492 77.0828L77.9899 79.9919L81.075 79.3773L81.7344 76.4681L82.7831 76.2592L81.2507 83.0204ZM86.7106 81.9327L82.7498 82.7218L84.2823 75.9605L88.1922 75.1816L87.9966 76.0443L85.1355 76.6143L84.6626 78.7008L87.1979 78.1957L87.0024 79.0585L84.467 79.5636L83.9941 81.6501L86.9062 81.0699L86.7106 81.9327Z" fill="white"/>
<path d="M68.3874 81.89L21.0796 91.3149L20.8594 92.2865L68.1672 82.8616L68.3874 81.89Z" fill="url(#paint0_linear)"/>
<path d="M138.499 67.922L91.1904 77.347L90.9702 78.3186L138.278 68.8936L138.499 67.922Z" fill="url(#paint1_linear)"/>
</g>
<defs>
<linearGradient id="paint0_linear" x1="68.3874" y1="81.89" x2="25.423" y2="72.152" gradientUnits="userSpaceOnUse">
<stop stop-color="white"/>
<stop offset="1" stop-color="#96B862"/>
</linearGradient>
<linearGradient id="paint1_linear" x1="91.1904" y1="77.347" x2="134.155" y2="87.0852" gradientUnits="userSpaceOnUse">
<stop stop-color="white"/>
<stop offset="1" stop-color="#96B862"/>
</linearGradient>
<clipPath id="clip0">
<rect width="124.932" height="42.1724" fill="white" transform="matrix(0.980726 -0.195386 -0.221047 0.975263 19.6781 86.0281)"/>
</clipPath>
</defs>
</svg>
